<svg id="b8d141af-1f4e-4f06-a7e8-23242045328b" data-name="Layer 1" xmlns="http://www.w3.org/2000/svg" width="644.87173" height="547" viewBox="0 0 644.87173 547"><path d="M864,665.5H336V440.49951a264,264,0,0,1,528,0Z" transform="translate(-277.56413 -176.5)" fill="#e6e6e6"/><path d="M469.41536,655.60632a.7188.7188,0,0,0,.71906-.71858V353.59883a.71907.71907,0,0,0-1.43813,0V654.88774A.71881.71881,0,0,0,469.41536,655.60632Z" transform="translate(-277.56413 -176.5)" fill="#3f3d56"/><path d="M556.86357,442.99859c0-48.26367-39.15191-162.791-87.44824-162.791s-87.44825,114.52731-87.44825,162.791a87.44827,87.44827,0,0,0,174.89649,0Z" transform="translate(-277.56413 -176.5)" fill="#fff"/><path d="M426.70709,311.58769a125.55359,125.55359,0,0,0,68.86227,9.14942,121.11847,121.11847,0,0,0,19.16953-4.48087l-1.694-2.2035a153.022,153.022,0,0,1-38.04812,41.3687,159.23075,159.23075,0,0,1-50.04014,25.283,149.989,149.989,0,0,1-31.16616,5.80893,1.52057,1.52057,0,0,0-1.06066,2.56066,137.51977,137.51977,0,0,0,54.58977,36.75559A136.51562,136.51562,0,0,0,554.78,419.53946l-2.05228-2.05229a144.15363,144.15363,0,0,1-47.66659,49.38442A153.1866,153.1866,0,0,1,440.46454,489.977a139.484,139.484,0,0,1-38.745-.90378c-1.88852-.31576-2.70044,2.57466-.79752,2.89284a147.35911,147.35911,0,0,0,69.79342-5.57471,156.56233,156.56233,0,0,0,60.16319-36.08094,142.338,142.338,0,0,0,24.43944-31.309,1.5124,1.5124,0,0,0-2.05228-2.05229A134.48071,134.48071,0,0,1,484.945,430.72739a133.61961,133.61961,0,0,1-90.09378-43.77466l-1.06066,2.56066a156.93734,156.93734,0,0,0,55.393-14.95117A161.5603,161.5603,0,0,0,495.7739,341.0376a153.78542,153.78542,0,0,0,19.86144-25.4707,1.51541,1.51541,0,0,0-1.694-2.2035,122.177,122.177,0,0,1-67.477,1.92753,118.91015,118.91015,0,0,1-18.2431-6.29365c-1.75068-.77036-3.27927,1.8137-1.51416,2.59041Z" transform="translate(-277.56413 -176.5)" fill="#f2f2f2"/><circle cx="165.43589" cy="140" r="4.5" fill="#6c63ff"/><circle cx="197.43589" cy="143" r="4.5" fill="#6c63ff"/><circle cx="225.43589" cy="155" r="4.5" fill="#6c63ff"/><circle cx="201.43589" cy="176" r="4.5" fill="#6c63ff"/><circle cx="174.43589" cy="196" r="4.5" fill="#6c63ff"/><circle cx="136.43589" cy="209" r="4.5" fill="#6c63ff"/><circle cx="156.43589" cy="242" r="4.5" fill="#6c63ff"/><circle cx="202.43589" cy="256" r="4.5" fill="#6c63ff"/><circle cx="202.43589" cy="256" r="4.5" fill="#6c63ff"/><circle cx="242.43589" cy="254" r="4.5" fill="#6c63ff"/><circle cx="229.43589" cy="292" r="4.5" fill="#6c63ff"/><circle cx="188.43589" cy="309" r="4.5" fill="#6c63ff"/><circle cx="145.43589" cy="317" r="4.5" fill="#6c63ff"/><circle cx="195.93589" cy="73.5" r="10" fill="#fff"/><circle cx="505.93589" cy="256.5" r="10" fill="#fff"/><circle cx="125.93589" cy="376.5" r="10" fill="#fff"/><circle cx="278.93589" cy="87.5" r="10" fill="#fff"/><circle cx="547.93589" cy="418.5" r="10" fill="#fff"/><circle cx="359.93589" cy="285.5" r="10" fill="#fff"/><circle cx="389.93589" cy="186.5" r="10" fill="#fff"/><circle cx="460.13113" cy="272.12795" r="8" fill="#eee"/><circle cx="448.63113" cy="322.62795" r="3" fill="#fff"/><path d="M522.16348,647.874H489.98617a3.8314,3.8314,0,0,1-3.82684-3.82684V614.42957a3.8314,3.8314,0,0,1,3.82684-3.82684h32.17731a3.8314,3.8314,0,0,1,3.82684,3.82684v29.61758A3.8314,3.8314,0,0,1,522.16348,647.874Z" transform="translate(-277.56413 -176.5)" fill="#fff"/><path d="M508.40857,649.05537h-4.66793a2.02819,2.02819,0,0,1-2.026-2.026V611.6443a2.02819,2.02819,0,0,1,2.026-2.026h4.66793a2.02819,2.02819,0,0,1,2.026,2.026v35.3851A2.02819,2.02819,0,0,1,508.40857,649.05537Z" transform="translate(-277.56413 -176.5)" fill="#3f3d56"/><path d="M504.88909,602.46862c2.64071,2.26633,1.832,7.54022,1.832,7.54022s-5.09016,1.59942-7.7309-.66691-1.832-7.54023-1.832-7.54023S502.24838,600.20226,504.88909,602.46862Z" transform="translate(-277.56413 -176.5)" fill="#3f3d56"/><path d="M513.65546,608.844c-2.25809,2.64777-7.53448,1.85552-7.53448,1.85552s-1.6153-5.08516.64279-7.73293,7.53448-1.85553,7.53448-1.85553S515.91355,606.19621,513.65546,608.844Z" transform="translate(-277.56413 -176.5)" fill="#3f3d56"/><path d="M440.157,648.1807H416.33336A2.83672,2.83672,0,0,1,413.5,645.34736V623.41892a2.83672,2.83672,0,0,1,2.83334-2.83334H440.157a2.83672,2.83672,0,0,1,2.83334,2.83334v21.92844A2.83672,2.83672,0,0,1,440.157,648.1807Z" transform="translate(-277.56413 -176.5)" fill="#fff"/><path d="M429.973,649.05537H426.517a1.50165,1.50165,0,0,1-1.5-1.5V621.35675a1.50165,1.50165,0,0,1,1.5-1.5H429.973a1.50164,1.50164,0,0,1,1.5,1.5v26.19862A1.50164,1.50164,0,0,1,429.973,649.05537Z" transform="translate(-277.56413 -176.5)" fill="#3f3d56"/><path d="M427.36727,614.5632c1.95514,1.678,1.35639,5.58268,1.35639,5.58268s-3.76869,1.18418-5.72385-.49378-1.35639-5.58267-1.35639-5.58267S425.41213,612.88522,427.36727,614.5632Z" transform="translate(-277.56413 -176.5)" fill="#3f3d56"/><path d="M433.85776,619.28343c-1.67186,1.96037-5.57842,1.3738-5.57842,1.3738s-1.19595-3.765.47591-5.72535,5.57842-1.37381,5.57842-1.37381S435.52962,617.32306,433.85776,619.28343Z" transform="translate(-277.56413 -176.5)" fill="#3f3d56"/><path d="M903.93484,723.5H296.06509a18.49992,18.49992,0,0,1-18.27356-21.38525l6.31579-40A18.41321,18.41321,0,0,1,302.38088,646.5H897.61916a18.4136,18.4136,0,0,1,18.27368,15.61475l6.31568,40A18.49975,18.49975,0,0,1,903.93484,723.5Z" transform="translate(-277.56413 -176.5)" fill="#3f3d56"/>

</svg>